# xmcd CD database file
#
# Track frame offsets:
#	150
#	7222
#	19150
#	38357
#	55820
#	77120
#	87662
#	118720
#	135692
#	165752
#
# Disc length: 2490 seconds
#
# Revision: 1
# Processed by: cddbd v1.5.2PL0 Copyright (c) Steve Scherf et al.
# Submitted via: CDex 1.51
#
DISCID=7509b80a
DTITLE=Eddie Hardin and Friends - Wizard's Convention
DYEAR=1976
DGENRE=Rock
TTITLE0=The Craig Song
TTITLE1=When The Sun Stops Shining
TTITLE2=Loose Ends
TTITLE3=Money To Burn
TTITLE4=Who's Counting On Me
TTITLE5=Make It Soon
TTITLE6=Until Tomorrow I, II, III and IV
TTITLE7=Light Of My Life
TTITLE8=She's A Woman
TTITLE9=Swanks and Swells I and II
EXTD=YEAR: 1976
EXTT0=
EXTT1=
EXTT2=
EXTT3=
EXTT4=
EXTT5=
EXTT6=
EXTT7=
EXTT8=
EXTT9=
PLAYORDER=
